<svg xmlns="http://www.w3.org/2000/svg" width="527.676" height="417.848" viewBox="0 0 527.676 417.848">
    <defs>
        <style>
            .a1 {
                fill: #f6f6f7;
            }

            .b1 {
                fill: #dfeeff;
                stroke: rgba(0, 0, 0, 0);
            }
        </style>
    </defs>
    <g transform="translate(14.576 105.101)">
        <path class="a1"
            d="M11.907,205.591c33.351-33.357,474.536-116.379,454.925-99.9-32.281,27.134-55.845,67.123-80.618,101.25s-55.359,67.142-95.854,78.909c-23.41,6.8-48.333,5.933-72.313,10.327-35.456,6.5-49.711,31.558-71.2,52.73-18.62,18.342-42.756,31.421-95.459,59-112.134,58.669-5.13-56.094-9.528-72.594"
            transform="translate(80.908 -206) rotate(13)" />
        <path class="b1"
            d="M56.782,190.3s427.805-98.352,408.195-81.869c-32.281,27.134-53.989,64.382-78.762,98.508s-55.359,67.142-95.854,78.909c-23.41,6.8-48.333,5.933-72.313,10.327-35.456,6.5-62.955,30.158-68.388,47.449-18.62,18.342-45.573,36.7-98.276,64.277-112.134,58.669-5.13-56.094-9.528-72.594"
            transform="translate(52.834 -196.806) rotate(7)" />
    </g>
</svg>