<svg xmlns="http://www.w3.org/2000/svg" width="62.447" height="62.447" viewBox="0 0 62.447 62.447"><defs><style>.a{fill:#007bff;}.b{mix-blend-mode:multiply;isolation:isolate;}.c{fill:#72ba9b;opacity:0.51;}</style></defs><g transform="translate(-84.441 -40.692)"><path class="a" d="M146.863,71.475a3.711,3.711,0,0,0-6.432-2.057,2.352,2.352,0,0,1-1.734.792h-.389a2.293,2.293,0,0,1-2.264-1.886q-.143-.817-.353-1.626a1.74,1.74,0,0,1,.978-2.044l.178-.077a1.74,1.74,0,0,1,1.326-.021,2.03,2.03,0,1,0-1.148-2.661,1.777,1.777,0,0,1-.925.973,1.736,1.736,0,0,1-2.221-.778,20.676,20.676,0,0,0-1.147-1.874,2.585,2.585,0,0,1,.33-3.282l0,0a2.626,2.626,0,0,1,1.943-.757,3.713,3.713,0,1,0-3.6-3.6,2.6,2.6,0,0,1-4.075,2.249q-.586-.4-1.195-.758a1.742,1.742,0,0,1-.756-2.138l.069-.175a1.74,1.74,0,0,1,.922-.952,2.03,2.03,0,1,0-2.667-1.011,1.647,1.647,0,0,1,.008,1.282v0A1.734,1.734,0,0,1,121.6,52.09a20.749,20.749,0,0,0-2.278-.54,2.322,2.322,0,0,1-1.947-2.271v-.4a2.351,2.351,0,0,1,.791-1.734,3.713,3.713,0,1,0-5.021-.023,2.412,2.412,0,0,1,.816,1.76v.386a2.292,2.292,0,0,1-1.886,2.264q-.818.143-1.626.353a1.741,1.741,0,0,1-2.045-.978l-.077-.178a1.742,1.742,0,0,1-.021-1.326,2.03,2.03,0,1,0-2.66,1.148,1.78,1.78,0,0,1,.972.925,1.735,1.735,0,0,1-.778,2.221,20.68,20.68,0,0,0-1.874,1.147,2.584,2.584,0,0,1-3.281-.33l0,0a2.625,2.625,0,0,1-.757-1.943,3.713,3.713,0,1,0-3.6,3.6,2.6,2.6,0,0,1,2.249,4.075q-.4.586-.758,1.195a1.742,1.742,0,0,1-2.138.756l-.174-.069a1.742,1.742,0,0,1-.953-.922,2.03,2.03,0,1,0-1.011,2.667,1.647,1.647,0,0,1,1.282-.008h0a1.734,1.734,0,0,1,1.021,2.118,20.751,20.751,0,0,0-.541,2.278,2.4,2.4,0,0,1-2.382,1.947h-.243a2.469,2.469,0,0,1-1.8-.821,3.712,3.712,0,1,0-2.717,6.241,2.837,2.837,0,0,0,2.292-1.338,2.467,2.467,0,0,1,1.973-1.039h.3A2.384,2.384,0,0,1,95.022,75c.2.746.451,1.5.617,2.138a1.74,1.74,0,0,1-.978,2.044l-.178.078a1.741,1.741,0,0,1-1.326.021,2.03,2.03,0,1,0,1.148,2.66,1.775,1.775,0,0,1,.925-.972,1.734,1.734,0,0,1,2.22.778A20.633,20.633,0,0,0,98.6,83.618a2.584,2.584,0,0,1-.33,3.281l0,0a2.625,2.625,0,0,1-1.943.757,3.713,3.713,0,1,0,3.6,3.6A2.6,2.6,0,0,1,104,89.013q.587.4,1.195.758a1.741,1.741,0,0,1,.756,2.138l-.068.175a1.742,1.742,0,0,1-.923.952,2.03,2.03,0,1,0,2.667,1.011,1.644,1.644,0,0,1-.008-1.282v0a1.735,1.735,0,0,1,2.119-1.021,20.6,20.6,0,0,0,2.278.541,2.322,2.322,0,0,1,1.947,2.271v.395a2.35,2.35,0,0,1-.792,1.734,3.713,3.713,0,1,0,5.021.023,2.412,2.412,0,0,1-.816-1.76v-.386a2.294,2.294,0,0,1,1.886-2.264q.818-.143,1.627-.353a1.741,1.741,0,0,1,2.044.978l.078.178a1.741,1.741,0,0,1,.021,1.326,2.03,2.03,0,1,0,2.66-1.148,1.774,1.774,0,0,1-.972-.925,1.734,1.734,0,0,1,.778-2.22,20.559,20.559,0,0,0,1.874-1.148,2.585,2.585,0,0,1,3.282.33l0,0a2.625,2.625,0,0,1,.757,1.943,3.713,3.713,0,1,0,3.6-3.6,2.6,2.6,0,0,1-2.248-4.075q.4-.586.758-1.194a1.741,1.741,0,0,1,2.138-.756l.175.069a1.738,1.738,0,0,1,.952.922,2.03,2.03,0,1,0,1.011-2.667,1.643,1.643,0,0,1-1.283.008h0a1.734,1.734,0,0,1-1.021-2.119,20.839,20.839,0,0,0,.541-2.277,2.322,2.322,0,0,1,2.27-1.947h.392a2.413,2.413,0,0,1,1.76.816,3.712,3.712,0,0,0,6.409-2.964Z" transform="translate(0)"/><g class="b" transform="translate(97.88 55.873)"><path class="c" d="M122.454,114.768c1.009-.872,2.736-.529,3.855.767s1.21,3.054.2,3.926-2.736.529-3.855-.767S121.445,115.641,122.454,114.768Z" transform="translate(-115.182 -90)"/><path class="c" d="M148.918,70.953a1.972,1.972,0,0,1-2.352,1.417c-1.188-.143-2.06-1.008-1.949-1.933a1.971,1.971,0,0,1,2.352-1.417C148.156,69.163,149.029,70.028,148.918,70.953Z" transform="translate(-125.78 -69)"/><path class="c" d="M127.585,97.97a2.234,2.234,0,1,1,2.113-1.752A1.972,1.972,0,0,1,127.585,97.97Z" transform="translate(-117.309 -80.458)"/><path class="c" d="M149.715,125.6a.969.969,0,1,1,1.167.236A.855.855,0,0,1,149.715,125.6Z" transform="translate(-128.121 -94.693)"/><path class="c" d="M111.469,82.993c1.319-.2,2.6,1.01,2.853,2.7s-.6,3.228-1.923,3.428-2.6-1.01-2.853-2.7S110.15,83.193,111.469,82.993Z" transform="translate(-109.5 -75.479)"/><path class="c" d="M168.734,93.353c2.132.33,3.517,2.818,3.093,5.556s-2.5,4.69-4.63,4.359-3.517-2.818-3.093-5.556S166.6,93.023,168.734,93.353Z" transform="translate(-134.786 -80.277)"/><path class="c" d="M146.11,93.245c1.363-.679,3.175.189,4.047,1.939s.473,3.719-.89,4.4-3.174-.189-4.046-1.939S144.747,93.924,146.11,93.245Z" transform="translate(-125.851 -80.136)"/></g></g></svg>