<?xml version="1.0" encoding="iso-8859-1"?>
<!-- Generator: Adobe Illustrator 19.0.0, SVG Export Plug-In . SVG Version: 6.00 Build 0)  -->
<svg version="1.1" id="Capa_1" xmlns="http://www.w3.org/2000/svg" xmlns:xlink="http://www.w3.org/1999/xlink" x="0px" y="0px"
	 viewBox="0 0 512 512" style="enable-background:new 0 0 512 512;" xml:space="preserve">
<g transform="translate(1 1)">
	<g>
		<g>
			<path d="M169.667,276.333H255c11.782,0,21.333-9.551,21.333-21.333v-85.333c0-11.782-9.551-21.333-21.333-21.333h-85.333
				c-11.782,0-21.333,9.551-21.333,21.333V255C148.333,266.782,157.885,276.333,169.667,276.333z M191,191h42.667v42.667H191V191z"
				/>
			<path d="M425.667,148.333H319c-11.782,0-21.333,9.551-21.333,21.333c0,11.782,9.551,21.333,21.333,21.333h106.667
				c11.782,0,21.333-9.551,21.333-21.333C447,157.885,437.449,148.333,425.667,148.333z"/>
			<path d="M425.667,212.333H319c-11.782,0-21.333,9.551-21.333,21.333c0,11.782,9.551,21.333,21.333,21.333h106.667
				c11.782,0,21.333-9.551,21.333-21.333C447,221.885,437.449,212.333,425.667,212.333z"/>
			<path d="M425.667,319h-85.333C328.551,319,319,328.551,319,340.333v85.333c0,11.782,9.551,21.333,21.333,21.333h85.333
				c11.782,0,21.333-9.551,21.333-21.333v-85.333C447,328.551,437.449,319,425.667,319z M404.333,404.333h-42.667v-42.667h42.667
				V404.333z"/>
			<path d="M276.333,404.333H169.667c-11.782,0-21.333,9.551-21.333,21.333S157.885,447,169.667,447h106.667
				c11.782,0,21.333-9.551,21.333-21.333S288.115,404.333,276.333,404.333z"/>
			<path d="M276.333,340.333H169.667c-11.782,0-21.333,9.551-21.333,21.333S157.885,383,169.667,383h106.667
				c11.782,0,21.333-9.551,21.333-21.333S288.115,340.333,276.333,340.333z"/>
			<path d="M489.667-1h-384C93.885-1,84.333,8.551,84.333,20.333v213.333h-64C8.551,233.667-1,243.218-1,255v192
				c0,34.791,28.014,63.232,62.635,63.965C62.083,510.987,62.537,511,63,511h362.667C472.798,511,511,472.798,511,425.667V20.333
				C511,8.551,501.449-1,489.667-1z M127,41.667h341.333v42.667H127V41.667z M41.667,447V276.333h42.667V447
				c0,11.685-9.649,21.333-21.333,21.333S41.667,458.685,41.667,447z M425.667,468.333H123.334c0.212-0.597,0.405-1.203,0.6-1.808
				c0.066-0.206,0.14-0.409,0.205-0.617c0.29-0.932,0.558-1.874,0.805-2.824c0.065-0.249,0.119-0.502,0.181-0.752
				c0.175-0.706,0.343-1.415,0.494-2.131c0.074-0.35,0.139-0.703,0.207-1.055c0.122-0.628,0.237-1.258,0.339-1.892
				c0.061-0.378,0.118-0.758,0.173-1.138c0.09-0.627,0.17-1.257,0.241-1.89c0.043-0.377,0.086-0.753,0.122-1.131
				c0.065-0.681,0.114-1.367,0.157-2.054c0.021-0.327,0.048-0.653,0.064-0.982C126.97,449.046,127,448.027,127,447V255V127h341.333
				v298.667C468.333,449.234,449.234,468.333,425.667,468.333z"/>
		</g>
	</g>
</g>
</svg>
